<svg xmlns="http://www.w3.org/2000/svg" viewBox="0 0 1200 1600" role="img" aria-label="Konjiam resort map placeholder">
  <defs>
    <linearGradient id="grass" x1="0" x2="1" y1="0" y2="1">
      <stop offset="0" stop-color="#d9edb4"/>
      <stop offset="1" stop-color="#b8df91"/>
    </linearGradient>
    <linearGradient id="roof" x1="0" x2="1">
      <stop offset="0" stop-color="#65c7d1"/>
      <stop offset="1" stop-color="#1799b6"/>
    </linearGradient>
    <filter id="soft" x="-20%" y="-20%" width="140%" height="140%">
      <feDropShadow dx="0" dy="8" stdDeviation="8" flood-color="#6c8f65" flood-opacity="0.24"/>
    </filter>
  </defs>
  <rect width="1200" height="1600" fill="url(#grass)"/>
  <path d="M74 437c46-156 187-224 327-271 143-47 259-2 311 69 44 61 48 147 5 230-76 145-237 121-373 196-158 86-307 45-270-224Z" fill="#f8f6d9" opacity=".72"/>
  <path d="M720 159c121-79 311-44 367 87 53 125-28 252-163 275-116 20-226-31-235-139-8-94-27-185 31-223Z" fill="#f8f6d9" opacity=".72"/>
  <path d="M151 1435c131-59 184-166 267-294 128-199 263-255 435-225 118 21 201 85 218 189 25 154-104 314-281 348-137 26-279-44-387-4-101 37-187 32-252-14Z" fill="#f8f6d9" opacity=".72"/>
  <path d="M84 853c109-73 230-93 360-65 146 32 236 4 321-77 112-106 282-138 349-42" fill="none" stroke="#fffcef" stroke-width="44" stroke-linecap="round"/>
  <path d="M188 1327c172 3 326-64 460-189 104-96 218-146 366-115" fill="none" stroke="#fffcef" stroke-width="38" stroke-linecap="round"/>
  <path d="M318 186c-28 145-20 288 23 429" fill="none" stroke="#fffcef" stroke-width="36" stroke-linecap="round"/>
  <path d="M848 253c-5 170 44 317 147 443" fill="none" stroke="#fffcef" stroke-width="34" stroke-linecap="round"/>
  <path d="M507 1414c79-63 152-65 236-1" fill="none" stroke="#7dc8f2" stroke-width="16" stroke-linecap="round" opacity=".8"/>
  <path d="M503 877c34 138 27 271-23 398" fill="none" stroke="#7dc8f2" stroke-width="14" stroke-linecap="round" opacity=".8"/>
  <g opacity=".55" stroke="#6b8d62" stroke-width="10" stroke-linecap="round" fill="none">
    <path d="M501 196c62 26 94 78 98 156"/>
    <path d="M793 178c69 22 103 74 104 156"/>
    <path d="M724 1156c98 2 172 44 222 126"/>
    <path d="M190 1162c67-26 135-26 204 0"/>
  </g>
  <g filter="url(#soft)">
    <g transform="translate(326 578)">
      <rect x="0" y="58" width="185" height="86" rx="10" fill="#f6fbff"/>
      <polygon points="0,58 92,0 185,58" fill="url(#roof)"/>
      <rect x="30" y="83" width="38" height="61" fill="#d7edf4"/>
      <rect x="93" y="83" width="38" height="61" fill="#d7edf4"/>
    </g>
    <g transform="translate(520 514)">
      <rect x="0" y="47" width="187" height="80" rx="10" fill="#f8e4bd"/>
      <polygon points="0,47 94,0 187,47" fill="#c7813e"/>
      <rect x="31" y="70" width="124" height="24" fill="#fff8eb"/>
    </g>
    <g transform="translate(740 691)">
      <rect x="0" y="58" width="160" height="237" rx="12" fill="#f8fbff"/>
      <polygon points="0,58 80,6 160,58" fill="url(#roof)"/>
      <rect x="26" y="85" width="28" height="130" fill="#cbe8f4"/>
      <rect x="74" y="85" width="28" height="130" fill="#cbe8f4"/>
      <rect x="120" y="85" width="20" height="130" fill="#cbe8f4"/>
    </g>
    <g transform="translate(564 980)">
      <rect x="0" y="58" width="174" height="247" rx="12" fill="#f8fbff"/>
      <polygon points="0,58 87,0 174,58" fill="url(#roof)"/>
      <rect x="37" y="92" width="35" height="148" fill="#cbe8f4"/>
      <rect x="99" y="92" width="35" height="148" fill="#cbe8f4"/>
    </g>
    <g transform="translate(226 1010)">
      <rect x="0" y="46" width="210" height="94" rx="10" fill="#effbff"/>
      <polygon points="0,46 105,0 210,46" fill="url(#roof)"/>
      <rect x="28" y="70" width="152" height="28" fill="#d7edf4"/>
    </g>
    <g transform="translate(820 176)">
      <rect x="0" y="45" width="174" height="82" rx="10" fill="#f4fff8"/>
      <polygon points="0,45 87,0 174,45" fill="#3d9375"/>
      <rect x="38" y="68" width="96" height="24" fill="#d0e9de"/>
    </g>
    <g transform="translate(210 1342)">
      <rect x="0" y="52" width="190" height="90" rx="10" fill="#f9fdff"/>
      <polygon points="0,52 95,0 190,52" fill="url(#roof)"/>
      <rect x="30" y="80" width="38" height="62" fill="#cbe8f4"/>
      <rect x="86" y="80" width="38" height="62" fill="#cbe8f4"/>
    </g>
  </g>
  <g fill="#77b66f" opacity=".85">
    <circle cx="181" cy="593" r="28"/>
    <circle cx="226" cy="582" r="18"/>
    <circle cx="301" cy="710" r="28"/>
    <circle cx="835" cy="160" r="28"/>
    <circle cx="998" cy="178" r="38"/>
    <circle cx="1048" cy="228" r="22"/>
    <circle cx="902" cy="564" r="34"/>
    <circle cx="1005" cy="826" r="28"/>
    <circle cx="807" cy="1275" r="38"/>
    <circle cx="438" cy="1230" r="34"/>
    <circle cx="151" cy="921" r="38"/>
    <circle cx="593" cy="668" r="34"/>
  </g>
  <g fill="#d7ecb8" stroke="#91c378" stroke-width="4">
    <rect x="492" y="760" width="120" height="52" rx="26"/>
    <rect x="616" y="758" width="120" height="52" rx="26"/>
    <rect x="700" y="334" width="110" height="50" rx="16"/>
    <rect x="868" y="360" width="126" height="52" rx="16"/>
    <rect x="654" y="1228" width="164" height="72" rx="22"/>
  </g>
  <g fill="none" stroke="#9ea9a2" stroke-width="6" stroke-linecap="round" opacity=".75">
    <path d="M300 169v286"/>
    <path d="M396 170v307"/>
    <path d="M606 241c-88 12-120 42-96 91 23 47 128 6 157 50 35 54-71 73-146 72"/>
    <path d="M854 273v242"/>
  </g>
  <g fill="#4e5b56" opacity=".82">
    <rect x="120" y="1008" width="130" height="38" rx="19"/>
    <rect x="154" y="1247" width="132" height="38" rx="19"/>
    <rect x="900" y="1260" width="152" height="38" rx="19"/>
    <rect x="957" y="856" width="142" height="38" rx="19"/>
  </g>
  <text x="602" y="88" text-anchor="middle" font-family="Arial, sans-serif" font-size="34" font-weight="800" fill="#517a4a">Konjiam Workshop Map</text>
</svg>
